<mxfile host="app.diagrams.net" modified="2021-04-01T03:33:15.724Z" agent="5.0 (Windows NT 6.1; Win64; x64) AppleWebKit/537.36 (KHTML, like Gecko) Chrome/87.0.4280.88 Safari/537.36" etag="5mnZsdp-Fg-8J1sLjY6b" version="14.5.3" type="github">
  <diagram id="5AKpviaR0neRel2vndL9" name="Page-1">
    <mxGraphModel dx="868" dy="393" grid="1" gridSize="10" guides="1" tooltips="1" connect="1" arrows="1" fold="1" page="1" pageScale="1" pageWidth="827" pageHeight="1169" math="0" shadow="0">
      <root>
        <mxCell id="0" />
        <mxCell id="1" parent="0" />
        <mxCell id="tpryrDLZoh8TFsFFrdMF-1" value="" style="rounded=0;whiteSpace=wrap;html=1;fillColor=#dae8fc;strokeColor=#6c8ebf;" vertex="1" parent="1">
          <mxGeometry x="180" y="70" width="340" height="180" as="geometry" />
        </mxCell>
        <mxCell id="tpryrDLZoh8TFsFFrdMF-3" value="&lt;font style=&quot;font-size: 28px&quot;&gt;前端&lt;/font&gt;" style="text;html=1;strokeColor=none;fillColor=none;align=center;verticalAlign=middle;whiteSpace=wrap;rounded=0;fontSize=28;" vertex="1" parent="1">
          <mxGeometry x="180" y="70" width="70" height="50" as="geometry" />
        </mxCell>
        <mxCell id="tpryrDLZoh8TFsFFrdMF-4" value="&lt;font style=&quot;font-size: 24px&quot;&gt;HTML5&lt;/font&gt;" style="rounded=0;whiteSpace=wrap;html=1;fillColor=#ffe6cc;strokeColor=#d79b00;" vertex="1" parent="1">
          <mxGeometry x="190" y="170" width="80" height="60" as="geometry" />
        </mxCell>
        <mxCell id="tpryrDLZoh8TFsFFrdMF-5" value="&lt;font style=&quot;font-size: 24px&quot;&gt;CSS&lt;/font&gt;" style="rounded=0;whiteSpace=wrap;html=1;fillColor=#ffe6cc;strokeColor=#d79b00;" vertex="1" parent="1">
          <mxGeometry x="310" y="170" width="80" height="60" as="geometry" />
        </mxCell>
        <mxCell id="tpryrDLZoh8TFsFFrdMF-6" value="&lt;font style=&quot;font-size: 24px&quot;&gt;Java&lt;br&gt;Script&lt;/font&gt;" style="rounded=0;whiteSpace=wrap;html=1;fillColor=#ffe6cc;strokeColor=#d79b00;" vertex="1" parent="1">
          <mxGeometry x="310" y="90" width="80" height="60" as="geometry" />
        </mxCell>
        <mxCell id="tpryrDLZoh8TFsFFrdMF-7" value="&lt;font style=&quot;font-size: 24px&quot;&gt;VUE&lt;/font&gt;" style="rounded=0;whiteSpace=wrap;html=1;fillColor=#ffe6cc;strokeColor=#d79b00;" vertex="1" parent="1">
          <mxGeometry x="430" y="170" width="80" height="60" as="geometry" />
        </mxCell>
        <mxCell id="tpryrDLZoh8TFsFFrdMF-8" value="&lt;font style=&quot;font-size: 24px&quot;&gt;NGinx&lt;/font&gt;" style="rounded=0;whiteSpace=wrap;html=1;fillColor=#ffe6cc;strokeColor=#d79b00;" vertex="1" parent="1">
          <mxGeometry x="430" y="90" width="80" height="60" as="geometry" />
        </mxCell>
        <mxCell id="tpryrDLZoh8TFsFFrdMF-9" value="" style="rounded=0;whiteSpace=wrap;html=1;fillColor=#dae8fc;strokeColor=#6c8ebf;" vertex="1" parent="1">
          <mxGeometry x="180" y="470" width="340" height="180" as="geometry" />
        </mxCell>
        <mxCell id="tpryrDLZoh8TFsFFrdMF-10" value="&lt;font style=&quot;font-size: 28px&quot;&gt;后端&lt;/font&gt;" style="text;html=1;strokeColor=none;fillColor=none;align=center;verticalAlign=middle;whiteSpace=wrap;rounded=0;" vertex="1" parent="1">
          <mxGeometry x="180" y="470" width="70" height="50" as="geometry" />
        </mxCell>
        <mxCell id="tpryrDLZoh8TFsFFrdMF-11" value="&lt;font style=&quot;font-size: 24px&quot;&gt;中间接口&lt;/font&gt;" style="rounded=1;whiteSpace=wrap;html=1;fillColor=#dae8fc;strokeColor=#6c8ebf;" vertex="1" parent="1">
          <mxGeometry x="150" y="330" width="400" height="60" as="geometry" />
        </mxCell>
        <mxCell id="tpryrDLZoh8TFsFFrdMF-12" value="&lt;font style=&quot;font-size: 24px&quot;&gt;SpringBoot&lt;/font&gt;" style="rounded=0;whiteSpace=wrap;html=1;fillColor=#ffe6cc;strokeColor=#d79b00;" vertex="1" parent="1">
          <mxGeometry x="250" y="490" width="200" height="60" as="geometry" />
        </mxCell>
        <mxCell id="tpryrDLZoh8TFsFFrdMF-13" value="&lt;font style=&quot;font-size: 24px&quot;&gt;模型&lt;/font&gt;" style="rounded=0;whiteSpace=wrap;html=1;fillColor=#ffe6cc;strokeColor=#d79b00;" vertex="1" parent="1">
          <mxGeometry x="250" y="570" width="80" height="60" as="geometry" />
        </mxCell>
        <mxCell id="tpryrDLZoh8TFsFFrdMF-14" value="&lt;font style=&quot;font-size: 24px&quot;&gt;数据库&lt;/font&gt;" style="rounded=0;whiteSpace=wrap;html=1;fillColor=#ffe6cc;strokeColor=#d79b00;" vertex="1" parent="1">
          <mxGeometry x="370" y="570" width="80" height="60" as="geometry" />
        </mxCell>
        <mxCell id="tpryrDLZoh8TFsFFrdMF-16" value="" style="shape=flexArrow;endArrow=classic;startArrow=classic;html=1;fillColor=#dae8fc;strokeColor=#6c8ebf;" edge="1" parent="1">
          <mxGeometry width="50" height="50" relative="1" as="geometry">
            <mxPoint x="349.5" y="470" as="sourcePoint" />
            <mxPoint x="349.5" y="390" as="targetPoint" />
          </mxGeometry>
        </mxCell>
        <mxCell id="tpryrDLZoh8TFsFFrdMF-17" value="" style="shape=flexArrow;endArrow=classic;startArrow=classic;html=1;fillColor=#dae8fc;strokeColor=#6c8ebf;" edge="1" parent="1">
          <mxGeometry width="50" height="50" relative="1" as="geometry">
            <mxPoint x="349.5" y="330" as="sourcePoint" />
            <mxPoint x="349.5" y="250" as="targetPoint" />
          </mxGeometry>
        </mxCell>
      </root>
    </mxGraphModel>
  </diagram>
</mxfile>
